HIERARCHY
ROOT pelvis
{
  OFFSET 0 100 0
  CHANNELS 6 Xposition Yposition Zposition Zrotation Xrotation Yrotation
  JOINT pelvis_right_femur
  {
    OFFSET -10.78128 -3.44521 -0.5502486
    CHANNELS 3 Zrotation Xrotation Yrotation
    JOINT right_femur_tibia
    {
      OFFSET -0.8047443 -44.0398 -0.1307829
      CHANNELS 3 Zrotation Xrotation Yrotation
      JOINT right_tibia_foot
      {
        OFFSET 3.006224 -47.83518 -5
        CHANNELS 3 Zrotation Xrotation Yrotation
        End Site
        {
          OFFSET 0 -5 15
        }
      }
    }
  }
  JOINT pelvis_left_femur
  {
    OFFSET 10.78128 -3.44521 -0.5502486
    CHANNELS 3 Zrotation Xrotation Yrotation
    JOINT left_femur_tibia
    {
      OFFSET 0.8047443 -44.0398 -0.1307829
      CHANNELS 3 Zrotation Xrotation Yrotation
      JOINT left_tibia_foot
      {
        OFFSET -4.370144 -48.10324 -4.275266
        CHANNELS 3 Zrotation Xrotation Yrotation
        End Site
        {
          OFFSET 0 -5 15
        }
      }
    }
  }
  JOINT pelvis_spine1
  {
    OFFSET 0 6.468898 -3.129235
    CHANNELS 3 Zrotation Xrotation Yrotation
    JOINT spine1
    {
      OFFSET 0 23.15396 4.99043
      CHANNELS 3 Zrotation Xrotation Yrotation
      JOINT spine2
      {
        OFFSET 0 20.79997 -5.064912
        CHANNELS 3 Zrotation Xrotation Yrotation
        JOINT neck
        {
          OFFSET 0 14.38658 9.616178
          CHANNELS 3 Zrotation Xrotation Yrotation
          End Site
          {
            OFFSET 0 20 0
          }
        }
      }
      JOINT right_manubrium
      {
        OFFSET -5.722621 16.35077 3.967754
        CHANNELS 3 Zrotation Xrotation Yrotation
        JOINT right_clavicle
        {
          OFFSET -13.16364 1.694482 -4.693211
          CHANNELS 3 Zrotation Xrotation Yrotation
          JOINT right_humerus
          {
            OFFSET -28.5034 -0.3100689 -2.792744
            CHANNELS 3 Zrotation Xrotation Yrotation
            JOINT right_radius
            {
              OFFSET -25.15693 0.02248979 -1.271978
              CHANNELS 3 Zrotation Xrotation Yrotation
              End Site
              {
                OFFSET -15 0 0
              }
            }
          }
        }
      }
      JOINT left_manubrium
      {
        OFFSET 5.722621 16.35077 3.967754
        CHANNELS 3 Zrotation Xrotation Yrotation
        JOINT left_clavicle
        {
          OFFSET 13.16364 1.694482 -4.693211
          CHANNELS 3 Zrotation Xrotation Yrotation
          JOINT left_humerus
          {
            OFFSET 29.39168 -1.063119 -2.237045
            CHANNELS 3 Zrotation Xrotation Yrotation
            JOINT left_radius
            {
              OFFSET 24.59957 -0.9528479 0.9047498
              CHANNELS 3 Zrotation Xrotation Yrotation
              End Site
              {
                OFFSET 15 -0 -0
              }
            }
          }
        }
      }
    }
  }
}
MOTION
Frames: 17
Frame Time: 0.0416666666667
0 103.5113 0 2.456129 -1.427954 0.1926765 1.402345 -12.91599 10.73139 -0 43.43244 -0 -7.879642 -17.20635 -3.628834 -8.131686 9.843395 -23.9323 -0 3.699323 -0 15.40063 -13.54131 30.62383 -5.430719 -4.687147 4.84166 2.439882 10.26332 -7.338175 1.309171 22.67693 6.17952 2.957886 -23.75531 8.969034 7.017987 -19.60742 11.65543 85.45728 38.15897 -18.13634 -0 0 14.90908 -5.751626 6.162477 3.868183 5.537965 -19.3581 -1.611559 -91.53974 22.12769 19.06841 0 0 -13.17846 15.25621 15.03599 -3.825762
0.2643033 103.605 1.386997 1.854152 -1.101091 0.2993911 2.078497 -15.03471 10.14506 -0 42.51934 -0 -7.774726 -16.21283 -3.296821 -7.668036 9.790755 -23.42192 -0 4.06854 -0 14.13916 -14.15884 29.39358 -4.868408 -4.219458 4.648844 2.418536 10.16198 -7.347669 1.373141 22.36828 6.299225 3.092686 -23.9359 9.048803 6.921394 -19.52464 11.63078 85.19797 37.6331 -17.7451 -0 0 15.39048 -6.315634 6.583949 4.115312 5.850048 -19.46979 -1.523768 -91.57873 21.74654 19.02064 0 0 -13.11157 15.22267 15.0201 -3.855439
0.5907485 103.633 3.632975 0.04247834 -0.4624249 0.4455099 3.949285 -21.21533 7.747781 -0 38.46355 -0 -7.772921 -10.5538 -2.359535 -6.182566 10.3212 -20.67642 -0 6.388572 -0 9.281268 -16.68128 24.63057 -3.229169 -2.618865 3.741313 2.558755 10.03859 -7.671968 1.326656 21.6037 6.851836 3.505804 -24.9057 9.101104 6.182433 -19.22975 11.66936 85.51423 34.93301 -17.95144 -0 0 15.09368 -9.089894 7.981091 5.6155 6.211205 -20.19605 -1.890614 -91.76537 22.26448 19.34951 0 0 -14.14695 12.62375 15.35354 -0.8075268
0.9136826 103.5087 6.149911 -0.5298055 0.2811359 0.6049811 4.824288 -24.28582 6.98565 -0 34.43164 -0 -7.576485 -10.05282 -1.977181 -5.749376 10.70482 -20.03989 -0 7.251894 -0 7.758846 -17.8679 23.18695 -2.736763 -2.241849 3.661374 2.669158 9.712347 -7.759365 1.434202 21.21453 6.939549 3.668518 -25.2329 9.195559 5.936613 -18.95839 11.54867 85.47284 34.3395 -18.07402 -0 0 15.24208 -9.300466 8.297938 5.506672 6.818629 -20.55937 -1.587682 -91.65757 21.91566 18.84149 0 0 -14.905 12.80577 15.52236 -1.224822
1.222661 103.2288 9.13735 -1.080694 0.9992478 0.8030036 5.597026 -27.58179 5.798631 -0 29.38668 -0 -7.577986 -7.999074 -1.534519 -5.311322 11.41534 -18.675 -0 8.701414 -0 5.704256 -19.46358 21.05116 -2.289846 -1.744511 3.457375 2.866754 9.461389 -7.983777 1.415787 20.82421 7.153961 3.890174 -25.74521 9.187011 5.51529 -18.5788 11.4701 85.9064 33.35674 -18.84858 -0 0 14.48949 -10.07804 8.727001 5.733311 7.259426 -21.19855 -1.544721 -91.40982 22.00457 18.32584 0 0 -16.38905 12.13386 15.65877 -0.5443192
1.519718 102.7488 12.63734 -1.313056 1.473872 1.05475 5.813783 -30.24957 4.126428 -0 24.24774 -0 -7.779683 -5.5017 -0.9086625 -5.098848 12.05794 -17.08674 -0 9.970564 -0 4.159211 -20.76045 19.07291 -2.057853 -1.38285 3.320752 2.935407 9.409573 -8.138267 1.332796 20.52626 7.399024 4.175416 -25.90679 9.051712 5.079334 -18.15005 11.4508 86.53191 32.50604 -19.71893 -0 0 13.31382 -11.37468 9.260836 6.076568 7.794262 -22.10107 -1.69021 -90.58244 21.26819 17.12661 0 0 -18.35646 12.32471 15.60205 -0.9851428
1.793831 102.0242 16.76149 -1.31307 1.56257 1.391799 5.504193 -32.30084 1.925685 -0 18.87414 -0 -8.183006 -2.112439 -0.2994481 -5.035088 13.05548 -14.99399 -0 11.08862 -0 2.725683 -22.01274 16.95157 -1.96441 -1.063021 3.087154 2.991719 9.514461 -8.322933 1.153292 20.41452 7.657677 4.389342 -25.92915 8.802953 4.35638 -17.68511 11.47097 87.66288 31.08461 -20.99962 -0 0 11.2636 -13.21793 9.740889 6.735075 8.140611 -23.21331 -2.198592 -89.36723 20.48383 15.53773 0 0 -20.94498 12.39702 15.43836 -1.269423
2.034465 101.0117 21.58589 -1.012476 1.330949 1.831419 4.735433 -33.55289 -0.7608805 -0 12.91836 -0 -8.653609 1.414834 0.3105659 -5.214793 14.41863 -12.62267 -0 11.96072 -0 1.663494 -23.12594 14.9981 -2.021926 -0.9432596 2.860406 2.99828 9.723163 -8.491963 0.9169196 20.48618 7.857341 4.499919 -25.68551 8.445277 3.345641 -17.19795 11.48952 89.18289 29.18303 -22.53923 -0 0 8.591112 -15.33898 10.08621 7.464073 8.44843 -24.51143 -2.937769 -87.75539 19.29979 13.37663 0 0 -24.17988 12.86081 15.19736 -2.132236
2.226824 99.70059 27.14114 -0.4449638 0.5839356 2.378132 3.706864 -33.35898 -3.480701 -0 7.27158 -0 -9.044835 4.489748 0.6270029 -5.630236 16.26205 -10.19928 -0 12.63909 -0 0.9656653 -23.81098 13.42575 -2.12721 -1.072368 2.578935 2.969373 9.95552 -8.616269 0.6633808 20.87836 7.892866 4.333404 -25.1874 8.04388 1.890022 -16.74842 11.44716 91.0958 26.41856 -24.16292 -0 0 5.414559 -17.3578 10.03628 8.178822 8.498403 -25.69036 -3.933483 -86.02364 18.18417 10.94857 0 0 -27.58861 13.32142 14.94486 -3.052071
2.372503 98.27576 33.35636 0.1311257 -0.3677135 2.985756 3.214085 -31.48459 -5.201315 -0 3.269224 -0 -9.148527 5.912892 0.5160984 -6.117348 18.13649 -8.407778 -0 14.19034 -0 0.4713037 -23.43851 12.43495 -1.993133 -1.555678 2.357846 2.867417 10.06071 -8.646833 0.4631036 21.43986 7.713325 3.900307 -24.54467 7.70145 0.2918095 -16.42318 11.27275 92.91014 23.45894 -25.42311 -0 0 2.823495 -18.46077 9.554183 8.428204 8.32845 -26.3215 -4.820215 -84.78079 17.39321 9.018281 0 0 -30.15295 13.68246 14.74298 -3.897111
2.504548 97.26142 39.95235 -0.008923661 -0.9155452 3.478952 4.243698 -28.34737 -4.490741 -0 4.001389 -0 -9.116015 4.850126 0.02950051 -6.020178 18.54467 -8.177882 -0 19.42239 -0 -0.6071967 -20.82005 11.66509 -1.045929 -2.157895 2.33723 2.648646 9.946747 -8.556187 0.3891624 21.75272 7.441293 3.453981 -24.18584 7.589421 -0.591109 -16.34781 10.98814 93.69317 22.03272 -25.68919 -0 0 2.706571 -17.9065 9.019756 7.907486 7.880881 -25.81792 -5.0708 -85.08137 17.59031 9.343519 0 0 -29.81077 13.34979 14.63466 -3.644414
2.679337 97.31118 46.52203 -1.294042 -0.4455206 3.661431 6.703453 -25.32792 -1.495981 -0 9.847755 -0 -9.735181 2.461533 -0.1911223 -4.899929 15.50852 -9.292099 -0 31.03623 -0 -2.597318 -15.68474 10.42719 0.760254 -2.35321 2.759952 2.328855 9.919115 -8.44764 0.3877438 21.31639 7.421362 3.562595 -24.51533 7.673964 0.1987397 -16.56177 10.87858 92.81339 24.139 -24.9556 -0 0 5.776793 -16.37279 9.460253 6.874289 7.218083 -24.59971 -4.526741 -87.28563 18.42963 12.91183 0 0 -26.03779 12.31283 14.53389 -1.910206
2.896334 98.26161 52.78168 -2.353901 -0.3616724 3.496929 8.353038 -21.74653 0.9220397 -0 14.70317 -0 -11.19453 0.222226 -0.1888245 -3.600027 9.763681 -9.989648 -0 44.78044 -0 -3.984905 -10.55552 9.625072 1.969015 -1.900025 3.507521 2.010079 10.26671 -8.172034 0.509733 21.0321 7.443556 3.997054 -24.75926 7.707469 1.397553 -16.81415 11.10588 91.61384 27.26849 -23.82834 -0 0 8.681802 -15.65306 10.64764 6.195475 6.366881 -23.82426 -4.17021 -89.58287 19.186 16.81515 0 0 -21.62431 11.41911 14.75179 -0.07366038
3.057128 99.35787 58.65391 -2.052806 -2.063201 3.023216 8.019792 -16.16963 1.081183 -0 14.76306 -0 -12.37796 -2.004139 -0.5526464 -2.846229 4.129827 -9.708552 -0 52.94252 -0 -4.003109 -7.81997 10.47947 1.788902 -1.232966 4.167901 1.673426 10.69824 -7.446324 0.8605744 21.84744 6.990695 3.980728 -23.98291 7.559567 1.196343 -17.06854 11.3634 91.32132 27.47215 -22.40198 -0 0 9.289846 -16.12574 11.14764 6.303341 5.558928 -23.49825 -4.566496 -90.58085 19.89525 18.37905 0 0 -18.58486 10.9945 15.534 0.6611724
3.120853 100.3322 64.18397 -1.286271 -4.306428 2.447121 7.190429 -9.983905 0.4736049 -0 13.13056 -0 -12.80372 -3.913868 -1.030486 -2.306301 -0.7592777 -8.985483 -0 55.46792 -0 -3.419417 -6.549312 12.11147 1.187262 -0.7579345 4.714939 1.300249 11.15054 -6.597176 1.250437 22.86094 6.275463 3.625996 -22.79085 7.291547 0.2902142 -17.69602 11.54966 91.3084 25.90869 -20.6395 -0 0 9.629416 -17.11819 11.21696 6.91303 4.991643 -23.23268 -5.168332 -91.07917 20.16506 19.12369 0 0 -16.34311 10.71804 16.23606 0.7964157
3.146805 101.1917 69.4753 -0.7522169 -5.926077 1.848889 6.749091 -4.58639 0.1259177 -0 11.61854 -0 -12.80886 -5.242897 -1.276001 -1.606142 -5.412586 -7.967661 -0 55.36159 -0 -2.540588 -5.490692 13.49002 0.7616014 -0.5929731 5.33068 0.967781 11.82815 -6.014767 1.469997 23.27389 5.633556 3.274925 -21.86755 6.933692 -0.3623403 -18.8598 11.7972 91.07985 24.61214 -18.93981 -0 0 10.92406 -18.347 11.71639 7.736403 4.615777 -23.17954 -5.665768 -91.63449 19.57311 20.44754 0 0 -14.55077 10.5676 16.43508 0.7310143
3.19514 101.8426 74.61814 -0.4467609 -7.014039 1.234609 6.574441 0.1477311 -0.00372108 -0 10.21651 -0 -12.50387 -6.409869 -1.390709 -0.6808244 -9.814444 -6.75027 -0 52.9607 -0 -1.481184 -4.533487 14.59382 0.4922753 -0.6585647 5.962426 0.7096155 12.63401 -5.664115 1.550438 23.21596 5.052742 2.900634 -21.20559 6.530248 -0.7877599 -20.43714 12.08819 90.63568 23.56003 -17.27023 -0 0 12.9469 -19.69484 12.55788 8.768169 4.326013 -23.23663 -6.063057 -92.23081 18.46114 22.2616 0 0 -13.04553 10.38546 16.27863 0.6827614
